<svg width="15" height="15" viewBox="0 0 15 15" fill="none" xmlns="http://www.w3.org/2000/svg">
<path d="M11.2284 1.28215L1.22996 10.9942C0.550673 11.6541 0.568968 12.7044 1.27083 13.3401C1.97268 13.9759 3.09232 13.9564 3.77161 13.2966L13.77 3.58449C14.4493 2.92466 14.431 1.87436 13.7292 1.23858C13.0273 0.602806 11.9077 0.622311 11.2284 1.28215Z" fill="white"/>
<path d="M1.65213 3.40819L10.8751 13.7186C11.5082 14.4263 12.6262 14.5239 13.3724 13.9366C14.1185 13.3493 14.2102 12.2995 13.5771 11.5918L4.35414 1.28143C3.72107 0.573715 2.603 0.476092 1.85686 1.06338C1.11072 1.65067 1.01906 2.70048 1.65213 3.40819Z" fill="white"/>
</svg>
