<svg width="32" height="32" viewBox="0 0 32 32" fill="none" xmlns="http://www.w3.org/2000/svg">
<path d="M30.9231 14.8352L28.692 12.6041L16.4148 0.326808C15.9789 -0.108936 15.2724 -0.108936 14.8366 0.326808L2.55921 12.6041L0.326997 14.8364C-0.101226 15.2798 -0.088997 15.9863 0.354399 16.4146C0.786939 16.8323 1.47263 16.8323 1.90517 16.4146L2.23105 16.0864V30.1339C2.23105 30.7503 2.73075 31.25 3.34719 31.25H27.9018C28.5183 31.25 29.018 30.7503 29.018 30.1339V16.0864L29.345 16.4134C29.7884 16.8417 30.4949 16.8294 30.9231 16.386C31.3409 15.9535 31.3409 15.2677 30.9231 14.8352ZM18.9729 29.0178H12.2762V20.0888H18.9729V29.0178ZM26.7857 29.0178H21.2051V18.9727C21.2051 18.3563 20.7054 17.8566 20.089 17.8566H11.1601C10.5436 17.8566 10.0439 18.3563 10.0439 18.9727V29.0178H4.46333V13.8542L15.6245 2.69296L26.7857 13.8542V29.0178Z" fill="#C4C4C4"/>
</svg>
