<svg width="70" height="70" viewBox="0 0 70 70" fill="none" xmlns="http://www.w3.org/2000/svg">
<g clip-path="url(#clip0_6984_62)">
<path d="M44.1992 15.75H26.5932C20.6143 15.75 15.75 20.6069 15.75 26.5766V44.1552C15.75 50.1251 20.6143 54.9818 26.5932 54.9818H44.1992C50.1786 54.9818 55.0429 50.1249 55.0429 44.1552V26.5766C55.0431 20.6069 50.1786 15.75 44.1992 15.75ZM51.5568 44.1552C51.5568 48.2058 48.2563 51.501 44.1994 51.501H26.5932C22.5366 51.5012 19.2363 48.2058 19.2363 44.1552V26.5766C19.2363 22.5263 22.5366 19.2308 26.5932 19.2308H44.1992C48.2561 19.2308 51.5566 22.5263 51.5566 26.5766V44.1552H51.5568Z" fill="#303030"/>
<path d="M35.3965 25.2573C29.8136 25.2573 25.2717 29.7922 25.2717 35.3664C25.2717 40.9403 29.8136 45.4749 35.3965 45.4749C40.9794 45.4749 45.5213 40.9403 45.5213 35.3664C45.5213 29.7922 40.9794 25.2573 35.3965 25.2573ZM35.3965 41.9939C31.7362 41.9939 28.758 39.0208 28.758 35.3661C28.758 31.7113 31.7359 28.7379 35.3965 28.7379C39.0571 28.7379 42.035 31.7113 42.035 35.3661C42.035 39.0208 39.0568 41.9939 35.3965 41.9939Z" fill="#303030"/>
<path d="M45.946 22.3059C45.2743 22.3059 44.6145 22.5774 44.1401 23.0531C43.6634 23.5265 43.3894 24.1856 43.3894 24.8585C43.3894 25.5294 43.6637 26.1882 44.1401 26.6639C44.6142 27.1373 45.2743 27.4111 45.946 27.4111C46.62 27.4111 47.2777 27.1373 47.7542 26.6639C48.2306 26.1882 48.5026 25.5292 48.5026 24.8585C48.5026 24.1856 48.2306 23.5265 47.7542 23.0531C47.2801 22.5774 46.62 22.3059 45.946 22.3059Z" fill="#303030"/>
</g>
<circle cx="35" cy="35" r="34" stroke="#303030" stroke-width="2"/>
<defs>
<clipPath id="clip0_6984_62">
<rect width="39.2931" height="39.232" fill="white" transform="translate(15.75 15.75)"/>
</clipPath>
</defs>
</svg>
