<svg width="70" height="70" viewBox="0 0 70 70" fill="none" xmlns="http://www.w3.org/2000/svg">
<circle cx="35" cy="35" r="34" stroke="#303030" stroke-width="2"/>
<g clip-path="url(#clip0_6984_77)">
<path d="M26.8891 27.718H20.5959C20.3166 27.718 20.0903 27.9444 20.0903 28.2236V48.4407C20.0903 48.72 20.3166 48.9464 20.5959 48.9464H26.8891C27.1684 48.9464 27.3947 48.72 27.3947 48.4407V28.2236C27.3947 27.9444 27.1684 27.718 26.8891 27.718Z" fill="#303030"/>
<path d="M23.745 17.6675C21.4552 17.6675 19.5923 19.5283 19.5923 21.8156C19.5923 24.1039 21.4552 25.9655 23.745 25.9655C26.0329 25.9655 27.8943 24.1038 27.8943 21.8156C27.8944 19.5283 26.0329 17.6675 23.745 17.6675Z" fill="#303030"/>
<path d="M42.8963 27.2153C40.3688 27.2153 38.5004 28.3019 37.3671 29.5365V28.2234C37.3671 27.9442 37.1408 27.7178 36.8615 27.7178H30.8347C30.5554 27.7178 30.3291 27.9442 30.3291 28.2234V48.4406C30.3291 48.7199 30.5554 48.9462 30.8347 48.9462H37.1141C37.3934 48.9462 37.6197 48.7199 37.6197 48.4406V38.4378C37.6197 35.0671 38.5353 33.7539 40.8849 33.7539C43.4439 33.7539 43.6473 35.859 43.6473 38.6112V48.4407C43.6473 48.72 43.8736 48.9463 44.1529 48.9463H50.4346C50.7139 48.9463 50.9402 48.72 50.9402 48.4407V37.3512C50.9402 32.3391 49.9845 27.2153 42.8963 27.2153Z" fill="#303030"/>
</g>
<defs>
<clipPath id="clip0_6984_77">
<rect width="31.3478" height="31.3478" fill="white" transform="translate(19.5923 17.6331)"/>
</clipPath>
</defs>
</svg>
