<svg width="55" height="30" viewBox="0 0 55 30" fill="none" xmlns="http://www.w3.org/2000/svg">
<path d="M32.0512 10.2627C31.1932 9.1249 30.1157 8.17871 28.8851 7.48256C27.6545 6.78641 26.297 6.35511 24.8966 6.21531C23.4961 6.07551 22.0824 6.23018 20.7429 6.66976C19.4033 7.10934 18.1664 7.82449 17.1085 8.77102L16.1946 8.06248C9.91595 3.55022 1.12401 7.38191 0.301479 15.1106C0.0512614 18.834 -0.0127963 22.5679 0.109555 26.298C0.0893703 26.7766 0.165844 27.2544 0.33423 27.7017C0.502615 28.1489 0.759319 28.5561 1.08841 28.8979C1.41749 29.2397 1.81194 29.5089 2.24727 29.6887C2.68259 29.8685 3.1495 29.9552 3.61902 29.9432C4.07853 29.9412 4.53289 29.8444 4.9548 29.6587C5.37671 29.473 5.75747 29.2022 6.07418 28.8626C6.39089 28.523 6.63702 28.1215 6.79779 27.6824C6.95855 27.2433 7.03062 26.7756 7.00967 26.3073C7.00967 23.6223 7.00967 20.9373 7.00967 18.243C7.00228 17.4443 7.05729 16.6462 7.17418 15.8564C7.3216 15.048 7.76359 14.3265 8.41128 13.837C9.05897 13.3476 9.86432 13.1264 10.6654 13.218C11.4484 13.2782 12.183 13.6277 12.7315 14.201C13.28 14.7742 13.6047 15.5319 13.6448 16.3319C13.6905 17.3201 13.6448 18.3083 13.6448 19.2965C13.6448 21.7018 13.6448 24.1071 13.6448 26.5124C13.6354 27.2101 13.8388 27.8934 14.2268 28.468C14.6149 29.0425 15.1684 29.4799 15.8108 29.7195C18.1413 30.7077 20.5175 28.9736 20.5632 26.242C20.5632 23.063 20.5632 19.8839 20.6545 16.7048C20.6853 15.9363 20.9156 15.1899 21.3217 14.5419C21.7084 13.9705 22.2689 13.5449 22.9164 13.3309C23.564 13.1169 24.2626 13.1264 24.9043 13.3579C25.6282 13.5648 26.261 14.0177 26.6981 14.6416C27.1352 15.2656 27.3504 16.023 27.3079 16.7887C27.3079 20.0051 27.3079 23.2214 27.3079 26.4378C27.3079 26.8994 27.397 27.3564 27.5702 27.7829C27.7433 28.2093 27.9971 28.5967 28.3171 28.9231C28.637 29.2495 29.0168 29.5084 29.4349 29.685C29.8529 29.8616 30.3009 29.9525 30.7534 29.9525C31.2059 29.9525 31.6539 29.8616 32.0719 29.685C32.49 29.5084 32.8698 29.2495 33.1897 28.9231C33.5097 28.5967 33.7635 28.2093 33.9366 27.7829C34.1098 27.3564 34.1989 26.8994 34.1989 26.4378C34.1989 23.1469 34.1989 19.9118 34.1989 16.5742C34.2051 14.2829 33.4478 12.0573 32.0512 10.2627Z" fill="white"/>
<path d="M49.3155 12.1271L48.228 11.6703C49.3064 10.8126 50.33 10.0761 51.2439 9.23706C52.0559 8.58492 52.7568 7.80059 53.3185 6.91567C54.9636 3.78319 52.6422 0.137951 48.9591 0.0540455C45.5593 0.00743122 42.1686 0.00743122 38.7689 0.00743122C38.3524 -0.0219252 37.9346 0.0388675 37.5428 0.185821C37.151 0.332775 36.7941 0.562568 36.4955 0.860126C36.1969 1.15768 35.9634 1.51628 35.8102 1.91239C35.657 2.30851 35.5877 2.73318 35.6067 3.15856C35.566 3.59182 35.6181 4.02893 35.7595 4.4396C35.9009 4.85026 36.1281 5.22465 36.4254 5.53682C36.7228 5.84899 37.0831 6.09148 37.4814 6.24747C37.8797 6.40346 38.3066 6.46922 38.7323 6.4402C40.3956 6.4402 42.059 6.4402 43.7223 6.4402C44.0056 6.53343 44.2981 6.53343 44.8464 6.53343C42.5891 8.398 40.5053 10.1693 38.449 11.922C37.1238 13.0408 36.7217 14.2621 37.1878 15.6512C37.4353 16.3368 37.8967 16.9207 38.5009 17.3131C39.1052 17.7055 39.819 17.8848 40.5327 17.8234C42.2966 17.8234 44.0696 17.8234 45.8335 17.8234C46.2291 17.7488 46.6359 17.7639 47.0251 17.8676C47.4143 17.9714 47.7764 18.1612 48.0856 18.4237C48.3948 18.6862 48.6437 19.0148 48.8144 19.3864C48.9852 19.7579 49.0737 20.1633 49.0737 20.5736C49.0737 20.984 48.9852 21.3894 48.8144 21.7609C48.6437 22.1325 48.3948 22.4611 48.0856 22.7236C47.7764 22.9861 47.4143 23.1759 47.0251 23.2797C46.6359 23.3834 46.2291 23.3985 45.8335 23.3239C43.5487 23.3239 41.2639 23.3239 38.9791 23.3239C38.1781 23.3681 37.4243 23.7237 36.8726 24.3177C36.321 24.9117 36.0135 25.6988 36.0135 26.517C36.0135 27.3352 36.321 28.1223 36.8726 28.7162C37.4243 29.3102 38.1781 29.6659 38.9791 29.71C41.3644 29.71 43.7589 29.71 46.1442 29.71C48.2396 29.6558 50.253 28.8685 51.847 27.4801C53.4411 26.0917 54.5188 24.1865 54.8996 22.084C55.2032 20.0254 54.817 17.9226 53.8037 16.1157C52.7903 14.3088 51.209 12.9035 49.3155 12.1271Z" fill="white"/>
</svg>
