<svg width="70" height="70" viewBox="0 0 70 70" fill="none" xmlns="http://www.w3.org/2000/svg">
<circle cx="35" cy="35" r="34" stroke="#303030" stroke-width="2"/>
<path d="M59.9828 20.3127C58.1893 21.0994 56.2783 21.6209 54.2859 21.8741C56.3356 20.6503 57.9 18.7272 58.6354 16.4093C56.7244 17.5487 54.6145 18.3535 52.3659 18.8026C50.5513 16.8705 47.9651 15.6738 45.1438 15.6738C39.67 15.6738 35.2632 20.1168 35.2632 25.5635C35.2632 26.3472 35.3295 27.1007 35.4923 27.8181C27.2725 27.4172 19.9992 23.4776 15.1132 17.4763C14.2602 18.9563 13.7598 20.6503 13.7598 22.4739C13.7598 25.898 15.5231 28.9334 18.1515 30.6906C16.563 30.6605 15.0047 30.1993 13.6845 29.4729C13.6845 29.503 13.6845 29.5422 13.6845 29.5814C13.6845 34.3861 17.1116 38.3769 21.6058 39.2962C20.801 39.5163 19.9239 39.6218 19.0136 39.6218C18.3806 39.6218 17.7416 39.5856 17.1418 39.453C18.4228 43.3684 22.058 46.247 26.3803 46.3404C23.0165 48.9718 18.7453 50.5573 14.1215 50.5573C13.3107 50.5573 12.533 50.5212 11.7554 50.4217C16.135 53.246 21.3255 54.8586 26.9229 54.8586C45.1167 54.8586 55.0636 39.7875 55.0636 26.7239C55.0636 26.2869 55.0485 25.8649 55.0274 25.4459C56.9897 24.0533 58.6385 22.3141 59.9828 20.3127Z" fill="#303030"/>
</svg>
