<svg width="66" height="66" viewBox="0 0 66 66" fill="none" xmlns="http://www.w3.org/2000/svg">
<path d="M66 33C66 51.2254 51.2254 66 33 66C14.7746 66 0 51.2254 0 33C0 14.7746 14.7746 0 33 0C51.2254 0 66 14.7746 66 33Z" fill="#C4C4C4"/>
<path d="M44.7428 36.3959C44.741 36.6959 44.6177 36.9953 44.373 37.226L44.3728 37.2261C43.8668 37.7035 43.037 37.7035 42.5311 37.2261L42.5232 37.2345L42.5311 37.2261L33.3457 28.5599L33.0712 28.3009L32.7967 28.5599L23.6118 37.2258C23.1055 37.7033 22.2757 37.7032 21.7698 37.2259L21.7697 37.2258C21.5257 36.9957 21.4025 36.6972 21.4 36.398C21.4019 36.0981 21.5251 35.7986 21.7698 35.5678L21.7698 35.5678L32.1506 25.7738C32.4013 25.5373 32.7333 25.4158 33.0712 25.4158C33.4093 25.4158 33.7415 25.5376 33.9922 25.774L44.3728 35.568L44.3729 35.5681C44.6171 35.7983 44.7403 36.0968 44.7428 36.3959Z" fill="white" stroke="white" stroke-width="0.8"/>
</svg>
