<svg width="86" height="30" viewBox="0 0 86 30" fill="none" xmlns="http://www.w3.org/2000/svg">
<path d="M61.6881 11.2328H58.6747V21.4794C58.6747 21.6712 58.5088 21.8355 58.3153 21.8355H55.993C55.7995 21.8355 55.6336 21.6712 55.6336 21.4794V11.2328H52.5926C52.5096 11.2328 52.399 11.2054 52.3437 11.1506C52.2884 11.0958 52.2332 11.0136 52.2332 10.904V9.09582C52.2332 9.01363 52.2608 8.90404 52.3437 8.84924C52.399 8.79445 52.5096 8.73966 52.5926 8.76705H61.6881C61.8817 8.76705 62.0475 8.90404 62.0475 9.09582V10.904C62.0475 11.0958 61.8817 11.2328 61.6881 11.2328Z" fill="white"/>
<path d="M71.3916 21.7535C70.2029 21.9179 68.9864 22.0001 67.7977 21.9727C65.503 21.9727 63.4849 21.3974 63.4849 18.1919V12.3563C63.4849 9.15079 65.5307 8.60285 67.8253 8.60285C69.0141 8.57545 70.2029 8.65764 71.3916 8.82203C71.6405 8.84942 71.751 8.95901 71.751 9.17819V10.822C71.751 11.0138 71.5852 11.1782 71.3916 11.1782H67.6594C66.83 11.1782 66.5259 11.4522 66.5259 12.3837V13.9727H71.2534C71.4469 13.9727 71.6128 14.1371 71.6128 14.3289V16.0001C71.6128 16.1919 71.4469 16.3563 71.2534 16.3563H66.5259V18.2193C66.5259 19.1234 66.83 19.4248 67.6594 19.4248H71.3916C71.5852 19.4248 71.751 19.5892 71.751 19.7809V21.4248C71.751 21.6166 71.6405 21.7261 71.3916 21.7535Z" fill="white"/>
<path d="M84.7727 21.8352H81.9528C81.7593 21.8626 81.5658 21.753 81.4828 21.5612L79.0223 17.7256L76.8106 21.479C76.7 21.6982 76.5618 21.8352 76.3683 21.8352H73.7419C73.6866 21.8352 73.6037 21.8352 73.5484 21.7804C73.4931 21.7256 73.4654 21.6708 73.4654 21.5886C73.4654 21.5338 73.4931 21.5064 73.4931 21.479L77.3359 15.1228L73.4378 9.09544C73.4102 9.06805 73.4102 9.01325 73.4102 8.98586C73.4102 8.84887 73.5484 8.73928 73.6866 8.76668H76.5895C76.783 8.76668 76.9212 8.93106 77.0318 9.09544L79.2988 12.6571L81.5105 9.09544C81.5934 8.90366 81.7593 8.79407 81.9528 8.76668H84.5792C84.7174 8.76668 84.8557 8.84887 84.8557 8.98586C84.8557 9.01325 84.828 9.06805 84.828 9.09544L80.9576 15.1776L84.9939 21.479C85.0215 21.5338 85.0492 21.5886 85.0492 21.6434C85.0215 21.753 84.911 21.8352 84.7727 21.8352Z" fill="white"/>
<path d="M48.0032 8.79443C47.865 8.79443 47.7544 8.87663 47.7268 9.01361L45.1557 18.4657C45.128 18.6574 45.0727 18.7396 44.9069 18.7396C44.741 18.7396 44.6857 18.6574 44.658 18.4657L42.0869 9.01361C42.0593 8.87663 41.9487 8.79443 41.8105 8.79443H39.267C39.1841 8.79443 39.1012 8.82183 39.0459 8.90402C38.9906 8.95882 38.9629 9.04101 38.9906 9.1232C38.9906 9.1232 42.1422 19.9725 42.1699 20.0821C42.5846 21.3698 43.6075 21.9999 44.9069 21.9999C46.1509 22.0547 47.2844 21.2602 47.6438 20.0821C47.6991 19.9451 50.7678 9.1232 50.7678 9.1232C50.7955 9.04101 50.7678 8.95882 50.7125 8.90402C50.6572 8.84923 50.5743 8.79443 50.4914 8.79443H48.0032Z" fill="white"/>
<path d="M33.6272 0H7.16989C6.20227 0 5.3176 0.520548 4.84761 1.31507C4.34998 2.13699 4.32234 3.15068 4.76468 3.9726L7.4187 8.9589H2.60828C2.00006 8.9589 1.41949 9.26027 1.08774 9.78082C0.755988 10.3014 0.755988 10.9589 1.03245 11.5068L9.54745 27.4521C9.85156 28.0274 10.4598 28.3836 11.0956 28.3836C11.7315 28.3836 12.3397 28.0274 12.6438 27.4521L14.9661 23.1233L17.8689 28.5753C18.3389 29.4521 19.2789 30 20.2741 30C21.2694 30 22.2094 29.4521 22.6794 28.5753L35.9495 3.83562C36.3918 3.0137 36.3642 2.0274 35.8666 1.26027C35.4242 0.465753 34.5395 0 33.6272 0ZM21.7947 10.4384L15.989 21.2329C15.7955 21.6164 15.4084 21.8356 14.9661 21.8356C14.5238 21.8356 14.1367 21.589 13.9432 21.2329L8.22044 10.5479C8.05456 10.2192 8.05456 9.83562 8.24809 9.50685C8.44161 9.17808 8.80101 8.9863 9.16041 8.9863H20.8824C21.2418 8.9863 21.5735 9.15069 21.7394 9.45205C21.9606 9.75342 21.9606 10.137 21.7947 10.4384Z" fill="white"/>
</svg>
