<svg width="70" height="70" viewBox="0 0 70 70" fill="none" xmlns="http://www.w3.org/2000/svg">
<circle cx="35" cy="35" r="34" stroke="#303030" stroke-width="2"/>
<path d="M55.6053 24.4975C55.0893 22.5794 53.5771 21.0674 51.6593 20.5509C48.1557 19.5923 34.1411 19.5923 34.1411 19.5923C34.1411 19.5923 20.127 19.5923 16.6234 20.5146C14.7425 21.0305 13.1933 22.5797 12.6774 24.4975C11.7554 28.0008 11.7554 35.2662 11.7554 35.2662C11.7554 35.2662 11.7554 42.5682 12.6774 46.0349C13.1939 47.9527 14.7056 49.4647 16.6237 49.9812C20.1639 50.9401 34.1416 50.9401 34.1416 50.9401C34.1416 50.9401 48.1557 50.9401 51.6593 50.0178C53.5773 49.5016 55.0893 47.9896 55.6058 46.0718C56.5276 42.5682 56.5276 35.3031 56.5276 35.3031C56.5276 35.3031 56.5644 28.0008 55.6053 24.4975ZM29.6791 41.9782V28.5542L41.333 35.2662L29.6791 41.9782Z" fill="#303030"/>
</svg>
