<svg width="28" height="28" viewBox="0 0 28 28" fill="none" xmlns="http://www.w3.org/2000/svg">
<g clip-path="url(#clip0_5537_970)">
<path d="M27.823 4.07236C27.6697 3.88079 27.4377 3.76928 27.1923 3.76928H5.69581L5.09469 1.16451C5.01009 0.798054 4.68377 0.538452 4.30768 0.538452H0.80768C0.361648 0.538452 0 0.9001 0 1.34619C0 1.79227 0.361648 2.15387 0.80768 2.15387H3.66516L7.7455 19.8355C7.83005 20.2019 8.15642 20.4615 8.53251 20.4615H24.7154C25.1614 20.4615 25.523 20.0999 25.523 19.6539C25.523 19.2078 25.1614 18.8462 24.7154 18.8462H9.17509L8.55384 16.1539H24.7693C25.1471 16.1539 25.4744 15.892 25.5573 15.5235L27.9803 4.75426C28.0342 4.51483 27.9763 4.26398 27.823 4.07236Z" fill="white"/>
<path d="M11.8462 21.5385C10.2132 21.5385 8.88464 22.867 8.88464 24.5C8.88464 26.133 10.2132 27.4615 11.8462 27.4615C13.4792 27.4615 14.8077 26.133 14.8077 24.5C14.8077 22.867 13.4792 21.5385 11.8462 21.5385Z" fill="white"/>
<path d="M21.5385 21.5385C19.9055 21.5385 18.5769 22.867 18.5769 24.5C18.5769 26.133 19.9054 27.4615 21.5385 27.4615C23.1714 27.4615 24.5 26.133 24.5 24.5C24.5 22.867 23.1715 21.5385 21.5385 21.5385Z" fill="white"/>
</g>
<defs>
<clipPath id="clip0_5537_970">
<rect width="28" height="28" fill="white"/>
</clipPath>
</defs>
</svg>
